<mxfile host="Electron" modified="2024-10-09T18:16:01.414Z" agent="Mozilla/5.0 (Windows NT 10.0; Win64; x64) AppleWebKit/537.36 (KHTML, like Gecko) draw.io/23.1.5 Chrome/120.0.6099.109 Electron/28.1.0 Safari/537.36" etag="sJ-M4eNuHVAWqfjMTp1d" version="23.1.5" type="device">
  <diagram name="Página-1" id="NTkDoeZMveQwAT4sBATa">
    <mxGraphModel dx="1434" dy="1244" grid="1" gridSize="10" guides="1" tooltips="1" connect="1" arrows="1" fold="1" page="0" pageScale="1" pageWidth="827" pageHeight="1169" math="0" shadow="0">
      <root>
        <mxCell id="0" />
        <mxCell id="1" parent="0" />
        <mxCell id="H-bxiBj7e6YwtJiO_fhz-13" style="edgeStyle=orthogonalEdgeStyle;rounded=0;orthogonalLoop=1;jettySize=auto;html=1;exitX=1;exitY=0.5;exitDx=0;exitDy=0;entryX=0.018;entryY=0.44;entryDx=0;entryDy=0;entryPerimeter=0;" parent="1" source="H-bxiBj7e6YwtJiO_fhz-1" target="TzSEu6y6smeg9j1mhPQS-1" edge="1">
          <mxGeometry relative="1" as="geometry">
            <mxPoint x="340" y="100" as="targetPoint" />
          </mxGeometry>
        </mxCell>
        <mxCell id="H-bxiBj7e6YwtJiO_fhz-1" value="Cliente" style="rounded=0;whiteSpace=wrap;html=1;" parent="1" vertex="1">
          <mxGeometry x="40" y="70" width="120" height="60" as="geometry" />
        </mxCell>
        <mxCell id="H-bxiBj7e6YwtJiO_fhz-14" style="edgeStyle=orthogonalEdgeStyle;rounded=0;orthogonalLoop=1;jettySize=auto;html=1;exitX=0.191;exitY=0.902;exitDx=0;exitDy=0;entryX=0.75;entryY=1;entryDx=0;entryDy=0;exitPerimeter=0;" parent="1" source="TzSEu6y6smeg9j1mhPQS-1" target="H-bxiBj7e6YwtJiO_fhz-1" edge="1">
          <mxGeometry relative="1" as="geometry">
            <mxPoint x="400" y="140" as="sourcePoint" />
          </mxGeometry>
        </mxCell>
        <mxCell id="H-bxiBj7e6YwtJiO_fhz-15" style="edgeStyle=orthogonalEdgeStyle;rounded=0;orthogonalLoop=1;jettySize=auto;html=1;exitX=0;exitY=0.5;exitDx=0;exitDy=0;entryX=0.996;entryY=0.449;entryDx=0;entryDy=0;entryPerimeter=0;" parent="1" source="H-bxiBj7e6YwtJiO_fhz-3" target="TzSEu6y6smeg9j1mhPQS-1" edge="1">
          <mxGeometry relative="1" as="geometry">
            <mxPoint x="460" y="100" as="targetPoint" />
          </mxGeometry>
        </mxCell>
        <mxCell id="H-bxiBj7e6YwtJiO_fhz-3" value="Sistema de logistica" style="rounded=0;whiteSpace=wrap;html=1;" parent="1" vertex="1">
          <mxGeometry x="600" y="70" width="120" height="60" as="geometry" />
        </mxCell>
        <mxCell id="H-bxiBj7e6YwtJiO_fhz-16" style="edgeStyle=orthogonalEdgeStyle;rounded=0;orthogonalLoop=1;jettySize=auto;html=1;exitX=0.5;exitY=1;exitDx=0;exitDy=0;entryX=0.5;entryY=0;entryDx=0;entryDy=0;" parent="1" source="H-bxiBj7e6YwtJiO_fhz-12" edge="1">
          <mxGeometry relative="1" as="geometry">
            <mxPoint x="400" y="60" as="targetPoint" />
          </mxGeometry>
        </mxCell>
        <mxCell id="H-bxiBj7e6YwtJiO_fhz-12" value="Sistema gestion de&amp;nbsp;&lt;br&gt;pedidos" style="rounded=0;whiteSpace=wrap;html=1;" parent="1" vertex="1">
          <mxGeometry x="340" y="-110" width="120" height="60" as="geometry" />
        </mxCell>
        <mxCell id="H-bxiBj7e6YwtJiO_fhz-17" value="datos de entrega" style="text;html=1;align=center;verticalAlign=middle;whiteSpace=wrap;rounded=0;" parent="1" vertex="1">
          <mxGeometry x="220" y="70" width="60" height="30" as="geometry" />
        </mxCell>
        <mxCell id="H-bxiBj7e6YwtJiO_fhz-18" value="actualización estado de entrega" style="text;html=1;align=center;verticalAlign=middle;whiteSpace=wrap;rounded=0;" parent="1" vertex="1">
          <mxGeometry x="220" y="170" width="60" height="30" as="geometry" />
        </mxCell>
        <mxCell id="H-bxiBj7e6YwtJiO_fhz-19" value="datos de seguimiento" style="text;html=1;align=center;verticalAlign=middle;whiteSpace=wrap;rounded=0;" parent="1" vertex="1">
          <mxGeometry x="500" y="110" width="60" height="30" as="geometry" />
        </mxCell>
        <mxCell id="H-bxiBj7e6YwtJiO_fhz-20" value="detalles del pedido" style="text;html=1;align=center;verticalAlign=middle;whiteSpace=wrap;rounded=0;" parent="1" vertex="1">
          <mxGeometry x="330" y="-10" width="60" height="30" as="geometry" />
        </mxCell>
        <mxCell id="TzSEu6y6smeg9j1mhPQS-1" value="" style="ellipse;whiteSpace=wrap;html=1;aspect=fixed;" parent="1" vertex="1">
          <mxGeometry x="355" y="60" width="90" height="90" as="geometry" />
        </mxCell>
        <mxCell id="TzSEu6y6smeg9j1mhPQS-2" value="Gestion de entregas" style="text;html=1;align=center;verticalAlign=middle;whiteSpace=wrap;rounded=0;" parent="1" vertex="1">
          <mxGeometry x="370" y="90" width="60" height="30" as="geometry" />
        </mxCell>
      </root>
    </mxGraphModel>
  </diagram>
</mxfile>
